<?xml version="1.0" encoding="UTF-8"?>
<svg width="752pt" height="752pt" version="1.1" viewBox="0 0 752 752" xmlns="http://www.w3.org/2000/svg">
 <path d="m551.54 267.48-169.3-97.754c-3.8555-2.2266-8.6016-2.2266-12.449 0l-169.3 97.75c-3.8516 2.2227-6.2227 6.332-6.2227 10.777v195.5c0 4.4453 2.3711 8.5586 6.2227 10.777l169.3 97.75c1.9219 1.1133 4.0742 1.6719 6.2227 1.6719 2.1484 0 4.3008-0.55859 6.2266-1.6719l169.3-97.75c3.8516-2.2227 6.2227-6.332 6.2227-10.777v-195.49c0-4.4453-2.375-8.5586-6.2227-10.777zm-116.61 145.87h-122.21l62.957-111.1zm-142.96-13.895-63.73-110.59h126.4zm141.44 38.797-57.742 106.46-61.348-106.46zm21.688-39.992-58.344-109.4h117.68zm-66.645-134.3v-61.898l107.2 61.898zm-24.902 0h-107.2l107.2-61.898zm-144.4 58.988 56.328 97.742-56.328 33.133zm68.758 119.32 55.266 95.906-110.17-63.613zm172.75-2.0312 58.352 34.324-112.05 64.695zm11.883-21.902 60.32-111.22v146.7z" fill="#ffd65b"/>
</svg>
